<svg xmlns="http://www.w3.org/2000/svg" id="scene" viewBox="-600 -600 1200 1200" role="img" aria-label="Cog knob prototype">
      <defs>
        <filter id="shadowFilter" x="-50%" y="-50%" width="200%" height="200%">
          <feOffset dx="0" dy="10" result="off"></feOffset>
          <feGaussianBlur in="off" stdDeviation="10" result="blur"></feGaussianBlur>
          <feColorMatrix type="matrix" values="0 0 0 0 0
                    0 0 0 0 0
                    0 0 0 0 0
                    0 0 0 0.5 0" result="shadow"></feColorMatrix>
          <feMerge>
            <feMergeNode in="shadow"></feMergeNode>
            <feMergeNode in="SourceGraphic"></feMergeNode>
          </feMerge>
        </filter>
        <radialGradient id="metalGrad" cx="64.35" cy="-64.35" r="286.00" gradientUnits="userSpaceOnUse" fx="64.35" fy="-64.35">
          <stop offset="0%" stop-color="#d9dfe6"></stop>
          <stop offset="60%" stop-color="#8f9aa8"></stop>
          <stop offset="100%" stop-color="#3b4350"></stop>
        </radialGradient>
      </defs>
      <g id="knobGroup" filter="none" transform="rotate(0)">
        <path id="cog" d="M 260.000 0.000 L 263.539 3.234 L 265.444 6.516 L 266.114 9.802 L 266.247 13.080 L 266.167 16.352 L 265.985 19.620 L 265.739 22.884 L 265.442 26.144 L 265.097 29.399 L 264.702 32.648 L 264.243 35.888 L 263.683 39.114 L 262.913 42.303 L 261.615 45.394 L 259.106 48.242 L 255.004 50.723 L 250.881 53.112 L 248.293 55.756 L 246.840 58.621 L 245.836 61.579 L 244.966 64.565 L 244.117 67.556 L 243.255 70.543 L 242.368 73.521 L 241.451 76.491 L 240.509 79.453 L 239.552 82.411 L 238.617 85.379 L 237.808 88.396 L 237.425 91.585 L 238.107 95.221 L 240.209 99.498 L 242.241 103.840 L 242.744 107.601 L 242.106 110.893 L 240.975 113.973 L 239.648 116.965 L 238.229 119.915 L 236.753 122.836 L 235.232 125.734 L 233.668 128.609 L 232.059 131.460 L 230.394 134.278 L 228.643 137.044 L 226.711 139.695 L 224.329 142.055 L 220.922 143.725 L 216.182 144.448 L 211.458 145.077 L 208.056 146.530 L 205.618 148.620 L 203.558 150.969 L 201.611 153.395 L 199.682 155.834 L 197.743 158.263 L 195.783 160.675 L 193.800 163.068 L 191.795 165.444 L 189.780 167.811 L 187.780 170.194 L 185.879 172.672 L 184.304 175.472 L 183.543 179.092 L 183.848 183.848 L 184.063 188.637 L 183.089 192.305 L 181.240 195.102 L 179.016 197.514 L 176.645 199.771 L 174.206 201.953 L 171.724 204.087 L 169.210 206.182 L 166.664 208.240 L 164.087 210.258 L 161.471 212.225 L 158.795 214.110 L 155.995 215.820 L 152.891 217.088 L 149.104 217.328 L 144.448 216.182 L 139.844 214.955 L 136.144 214.995 L 133.091 215.994 L 130.290 217.375 L 127.562 218.872 L 124.848 220.387 L 122.126 221.889 L 119.392 223.367 L 116.644 224.819 L 113.883 226.247 L 111.115 227.663 L 108.356 229.099 L 105.651 230.661 L 103.124 232.645 L 101.036 235.698 L 99.498 240.209 L 97.864 244.716 L 95.561 247.732 L 92.782 249.608 L 89.804 250.986 L 86.750 252.164 L 83.661 253.246 L 80.552 254.268 L 77.427 255.241 L 74.287 256.168 L 71.134 257.046 L 67.965 257.862 L 64.771 258.580 L 61.529 259.088 L 58.177 259.072 L 54.586 257.844 L 50.723 255.004 L 46.939 252.109 L 43.506 250.730 L 40.303 250.484 L 37.186 250.689 L 34.094 251.027 L 31.006 251.388 L 27.917 251.734 L 24.825 252.054 L 21.731 252.344 L 18.633 252.606 L 15.534 252.855 L 12.435 253.126 L 9.338 253.534 L 6.245 254.400 L 3.147 256.422 L 0.000 260.000 L -3.234 263.539 L -6.516 265.444 L -9.802 266.114 L -13.080 266.247 L -16.352 266.167 L -19.620 265.985 L -22.884 265.739 L -26.144 265.442 L -29.399 265.097 L -32.648 264.702 L -35.888 264.243 L -39.114 263.683 L -42.303 262.913 L -45.394 261.615 L -48.242 259.106 L -50.723 255.004 L -53.112 250.881 L -55.756 248.293 L -58.621 246.840 L -61.579 245.836 L -64.565 244.966 L -67.556 244.117 L -70.543 243.255 L -73.521 242.368 L -76.491 241.451 L -79.453 240.509 L -82.411 239.552 L -85.379 238.617 L -88.396 237.808 L -91.585 237.425 L -95.221 238.107 L -99.498 240.209 L -103.840 242.241 L -107.601 242.744 L -110.893 242.106 L -113.973 240.975 L -116.965 239.648 L -119.915 238.229 L -122.836 236.753 L -125.734 235.232 L -128.609 233.668 L -131.460 232.059 L -134.278 230.394 L -137.044 228.643 L -139.695 226.711 L -142.055 224.329 L -143.725 220.922 L -144.448 216.182 L -145.077 211.458 L -146.530 208.056 L -148.620 205.618 L -150.969 203.558 L -153.395 201.611 L -155.834 199.682 L -158.263 197.743 L -160.675 195.783 L -163.068 193.800 L -165.444 191.795 L -167.811 189.780 L -170.194 187.780 L -172.672 185.879 L -175.472 184.304 L -179.092 183.543 L -183.848 183.848 L -188.637 184.063 L -192.305 183.089 L -195.102 181.240 L -197.514 179.016 L -199.771 176.645 L -201.953 174.206 L -204.087 171.724 L -206.182 169.210 L -208.240 166.664 L -210.258 164.087 L -212.225 161.471 L -214.110 158.795 L -215.820 155.995 L -217.088 152.891 L -217.328 149.104 L -216.182 144.448 L -214.955 139.844 L -214.995 136.144 L -215.994 133.091 L -217.375 130.290 L -218.872 127.562 L -220.387 124.848 L -221.889 122.126 L -223.367 119.392 L -224.819 116.644 L -226.247 113.883 L -227.663 111.115 L -229.099 108.356 L -230.661 105.651 L -232.645 103.124 L -235.698 101.036 L -240.209 99.498 L -244.716 97.864 L -247.732 95.561 L -249.608 92.782 L -250.986 89.804 L -252.164 86.750 L -253.246 83.661 L -254.268 80.552 L -255.241 77.427 L -256.168 74.287 L -257.046 71.134 L -257.862 67.965 L -258.580 64.771 L -259.088 61.529 L -259.072 58.177 L -257.844 54.586 L -255.004 50.723 L -252.109 46.939 L -250.730 43.506 L -250.484 40.303 L -250.689 37.186 L -251.027 34.094 L -251.388 31.006 L -251.734 27.917 L -252.054 24.825 L -252.344 21.731 L -252.606 18.633 L -252.855 15.534 L -253.126 12.435 L -253.534 9.338 L -254.400 6.245 L -256.422 3.147 L -260.000 0.000 L -263.539 -3.234 L -265.444 -6.516 L -266.114 -9.802 L -266.247 -13.080 L -266.167 -16.352 L -265.985 -19.620 L -265.739 -22.884 L -265.442 -26.144 L -265.097 -29.399 L -264.702 -32.648 L -264.243 -35.888 L -263.683 -39.114 L -262.913 -42.303 L -261.615 -45.394 L -259.106 -48.242 L -255.004 -50.723 L -250.881 -53.112 L -248.293 -55.756 L -246.840 -58.621 L -245.836 -61.579 L -244.966 -64.565 L -244.117 -67.556 L -243.255 -70.543 L -242.368 -73.521 L -241.451 -76.491 L -240.509 -79.453 L -239.552 -82.411 L -238.617 -85.379 L -237.808 -88.396 L -237.425 -91.585 L -238.107 -95.221 L -240.209 -99.498 L -242.241 -103.840 L -242.744 -107.601 L -242.106 -110.893 L -240.975 -113.973 L -239.648 -116.965 L -238.229 -119.915 L -236.753 -122.836 L -235.232 -125.734 L -233.668 -128.609 L -232.059 -131.460 L -230.394 -134.278 L -228.643 -137.044 L -226.711 -139.695 L -224.329 -142.055 L -220.922 -143.725 L -216.182 -144.448 L -211.458 -145.077 L -208.056 -146.530 L -205.618 -148.620 L -203.558 -150.969 L -201.611 -153.395 L -199.682 -155.834 L -197.743 -158.263 L -195.783 -160.675 L -193.800 -163.068 L -191.795 -165.444 L -189.780 -167.811 L -187.780 -170.194 L -185.879 -172.672 L -184.304 -175.472 L -183.543 -179.092 L -183.848 -183.848 L -184.063 -188.637 L -183.089 -192.305 L -181.240 -195.102 L -179.016 -197.514 L -176.645 -199.771 L -174.206 -201.953 L -171.724 -204.087 L -169.210 -206.182 L -166.664 -208.240 L -164.087 -210.258 L -161.471 -212.225 L -158.795 -214.110 L -155.995 -215.820 L -152.891 -217.088 L -149.104 -217.328 L -144.448 -216.182 L -139.844 -214.955 L -136.144 -214.995 L -133.091 -215.994 L -130.290 -217.375 L -127.562 -218.872 L -124.848 -220.387 L -122.126 -221.889 L -119.392 -223.367 L -116.644 -224.819 L -113.883 -226.247 L -111.115 -227.663 L -108.356 -229.099 L -105.651 -230.661 L -103.124 -232.645 L -101.036 -235.698 L -99.498 -240.209 L -97.864 -244.716 L -95.561 -247.732 L -92.782 -249.608 L -89.804 -250.986 L -86.750 -252.164 L -83.661 -253.246 L -80.552 -254.268 L -77.427 -255.241 L -74.287 -256.168 L -71.134 -257.046 L -67.965 -257.862 L -64.771 -258.580 L -61.529 -259.088 L -58.177 -259.072 L -54.586 -257.844 L -50.723 -255.004 L -46.939 -252.109 L -43.506 -250.730 L -40.303 -250.484 L -37.186 -250.689 L -34.094 -251.027 L -31.006 -251.388 L -27.917 -251.734 L -24.825 -252.054 L -21.731 -252.344 L -18.633 -252.606 L -15.534 -252.855 L -12.435 -253.126 L -9.338 -253.534 L -6.245 -254.400 L -3.147 -256.422 L -0.000 -260.000 L 3.234 -263.539 L 6.516 -265.444 L 9.802 -266.114 L 13.080 -266.247 L 16.352 -266.167 L 19.620 -265.985 L 22.884 -265.739 L 26.144 -265.442 L 29.399 -265.097 L 32.648 -264.702 L 35.888 -264.243 L 39.114 -263.683 L 42.303 -262.913 L 45.394 -261.615 L 48.242 -259.106 L 50.723 -255.004 L 53.112 -250.881 L 55.756 -248.293 L 58.621 -246.840 L 61.579 -245.836 L 64.565 -244.966 L 67.556 -244.117 L 70.543 -243.255 L 73.521 -242.368 L 76.491 -241.451 L 79.453 -240.509 L 82.411 -239.552 L 85.379 -238.617 L 88.396 -237.808 L 91.585 -237.425 L 95.221 -238.107 L 99.498 -240.209 L 103.840 -242.241 L 107.601 -242.744 L 110.893 -242.106 L 113.973 -240.975 L 116.965 -239.648 L 119.915 -238.229 L 122.836 -236.753 L 125.734 -235.232 L 128.609 -233.668 L 131.460 -232.059 L 134.278 -230.394 L 137.044 -228.643 L 139.695 -226.711 L 142.055 -224.329 L 143.725 -220.922 L 144.448 -216.182 L 145.077 -211.458 L 146.530 -208.056 L 148.620 -205.618 L 150.969 -203.558 L 153.395 -201.611 L 155.834 -199.682 L 158.263 -197.743 L 160.675 -195.783 L 163.068 -193.800 L 165.444 -191.795 L 167.811 -189.780 L 170.194 -187.780 L 172.672 -185.879 L 175.472 -184.304 L 179.092 -183.543 L 183.848 -183.848 L 188.637 -184.063 L 192.305 -183.089 L 195.102 -181.240 L 197.514 -179.016 L 199.771 -176.645 L 201.953 -174.206 L 204.087 -171.724 L 206.182 -169.210 L 208.240 -166.664 L 210.258 -164.087 L 212.225 -161.471 L 214.110 -158.795 L 215.820 -155.995 L 217.088 -152.891 L 217.328 -149.104 L 216.182 -144.448 L 214.955 -139.844 L 214.995 -136.144 L 215.994 -133.091 L 217.375 -130.290 L 218.872 -127.562 L 220.387 -124.848 L 221.889 -122.126 L 223.367 -119.392 L 224.819 -116.644 L 226.247 -113.883 L 227.663 -111.115 L 229.099 -108.356 L 230.661 -105.651 L 232.645 -103.124 L 235.698 -101.036 L 240.209 -99.498 L 244.716 -97.864 L 247.732 -95.561 L 249.608 -92.782 L 250.986 -89.804 L 252.164 -86.750 L 253.246 -83.661 L 254.268 -80.552 L 255.241 -77.427 L 256.168 -74.287 L 257.046 -71.134 L 257.862 -67.965 L 258.580 -64.771 L 259.088 -61.529 L 259.072 -58.177 L 257.844 -54.586 L 255.004 -50.723 L 252.109 -46.939 L 250.730 -43.506 L 250.484 -40.303 L 250.689 -37.186 L 251.027 -34.094 L 251.388 -31.006 L 251.734 -27.917 L 252.054 -24.825 L 252.344 -21.731 L 252.606 -18.633 L 252.855 -15.534 L 253.126 -12.435 L 253.534 -9.338 L 254.400 -6.245 L 256.422 -3.147 L 260.000 -0.000 Z" fill="#a5adb8" stroke="#0b0d11" stroke-width="1"></path>
        <circle id="hubCircle" r="236.60" fill="#c2aa57" stroke="#000" stroke-width="1" opacity="1"></circle>
        <circle id="marker" r="16" fill="#121008" stroke="#000" stroke-width="1" opacity="0.9" cx="0" cy="-201.11"></circle>
      </g>
    </svg>