<svg xmlns="http://www.w3.org/2000/svg" id="scene" viewBox="-600 -600 1200 1200" role="img" aria-label="Cog knob prototype">
      <defs>
        <filter id="shadowFilter" x="-50%" y="-50%" width="200%" height="200%">
          <feOffset dx="0" dy="10" result="off"></feOffset>
          <feGaussianBlur in="off" stdDeviation="10" result="blur"></feGaussianBlur>
          <feColorMatrix type="matrix" values="0 0 0 0 0
                    0 0 0 0 0
                    0 0 0 0 0
                    0 0 0 0.5 0" result="shadow"></feColorMatrix>
          <feMerge>
            <feMergeNode in="shadow"></feMergeNode>
            <feMergeNode in="SourceGraphic"></feMergeNode>
          </feMerge>
        </filter>
        <radialGradient id="metalGrad" cx="66.57" cy="-66.57" r="295.90" gradientUnits="userSpaceOnUse" fx="66.57" fy="-66.57">
          <stop offset="0%" stop-color="#d9dfe6"></stop>
          <stop offset="60%" stop-color="#8f9aa8"></stop>
          <stop offset="100%" stop-color="#3b4350"></stop>
        </radialGradient>
      </defs>
      <g id="knobGroup" filter="none" transform="rotate(0)">
        <path id="cog" d="M 269.000 0.000 L 273.221 3.353 L 276.791 6.795 L 279.413 10.291 L 281.122 13.811 L 282.118 17.332 L 282.617 20.847 L 282.786 24.352 L 282.737 27.847 L 282.540 31.333 L 282.238 34.811 L 281.854 38.280 L 281.405 41.742 L 280.899 45.197 L 280.341 48.644 L 279.734 52.082 L 279.081 55.513 L 278.383 58.934 L 277.641 62.346 L 276.855 65.749 L 276.024 69.140 L 275.149 72.521 L 274.230 75.890 L 273.264 79.245 L 272.251 82.586 L 271.185 85.911 L 270.062 89.217 L 268.872 92.498 L 267.597 95.748 L 266.208 98.952 L 264.659 102.090 L 262.872 105.125 L 260.726 107.996 L 258.050 110.617 L 254.651 112.879 L 250.403 114.693 L 245.403 116.067 L 240.074 117.173 L 235.008 118.293 L 230.645 119.667 L 227.099 121.387 L 224.240 123.420 L 221.864 125.685 L 219.791 128.098 L 217.892 130.600 L 216.085 133.148 L 214.320 135.717 L 212.567 138.290 L 210.809 140.858 L 209.036 143.415 L 207.241 145.956 L 205.422 148.479 L 203.577 150.983 L 201.704 153.466 L 199.803 155.928 L 197.874 158.367 L 195.917 160.785 L 193.932 163.179 L 191.920 165.551 L 189.882 167.901 L 187.820 170.230 L 185.736 172.540 L 183.633 174.834 L 181.518 177.117 L 179.400 179.400 L 177.294 181.700 L 175.226 184.046 L 173.238 186.488 L 171.397 189.107 L 169.800 192.029 L 168.572 195.422 L 167.833 199.462 L 167.601 204.223 L 167.699 209.533 L 167.749 214.951 L 167.368 219.976 L 166.361 224.312 L 164.751 227.934 L 162.673 230.978 L 160.272 233.606 L 157.660 235.955 L 154.912 238.118 L 152.075 240.152 L 149.175 242.095 L 146.228 243.967 L 143.246 245.782 L 140.234 247.547 L 137.195 249.266 L 134.131 250.942 L 131.045 252.576 L 127.938 254.169 L 124.810 255.722 L 121.663 257.234 L 118.496 258.706 L 115.310 260.136 L 112.106 261.523 L 108.883 262.867 L 105.642 264.165 L 102.381 265.412 L 99.099 266.604 L 95.795 267.729 L 92.464 268.772 L 89.098 269.704 L 85.687 270.478 L 82.211 271.015 L 78.644 271.192 L 74.948 270.829 L 71.087 269.707 L 67.044 267.654 L 62.864 264.707 L 58.666 261.252 L 54.603 257.922 L 50.772 255.249 L 47.185 253.430 L 43.790 252.370 L 40.525 251.863 L 37.338 251.710 L 34.194 251.764 L 31.073 251.930 L 27.963 252.147 L 24.857 252.381 L 21.753 252.609 L 18.649 252.820 L 15.544 253.005 L 12.437 253.161 L 9.329 253.284 L 6.220 253.373 L 3.110 253.427 L 0.000 253.445 L -3.110 253.427 L -6.220 253.373 L -9.329 253.284 L -12.437 253.161 L -15.544 253.005 L -18.649 252.820 L -21.753 252.609 L -24.857 252.381 L -27.963 252.147 L -31.073 251.930 L -34.194 251.764 L -37.338 251.710 L -40.525 251.863 L -43.790 252.370 L -47.185 253.430 L -50.772 255.249 L -54.603 257.922 L -58.666 261.252 L -62.864 264.707 L -67.044 267.654 L -71.087 269.707 L -74.948 270.829 L -78.644 271.192 L -82.211 271.015 L -85.687 270.478 L -89.098 269.704 L -92.464 268.772 L -95.795 267.729 L -99.099 266.604 L -102.381 265.412 L -105.642 264.165 L -108.883 262.867 L -112.106 261.523 L -115.310 260.136 L -118.496 258.706 L -121.663 257.234 L -124.810 255.722 L -127.938 254.169 L -131.045 252.576 L -134.131 250.942 L -137.195 249.266 L -140.234 247.547 L -143.246 245.782 L -146.228 243.967 L -149.175 242.095 L -152.075 240.152 L -154.912 238.118 L -157.660 235.955 L -160.272 233.606 L -162.673 230.978 L -164.751 227.934 L -166.361 224.312 L -167.368 219.976 L -167.749 214.951 L -167.699 209.533 L -167.601 204.223 L -167.833 199.462 L -168.572 195.422 L -169.800 192.029 L -171.397 189.107 L -173.238 186.488 L -175.226 184.046 L -177.294 181.700 L -179.400 179.400 L -181.518 177.117 L -183.633 174.834 L -185.736 172.540 L -187.820 170.230 L -189.882 167.901 L -191.920 165.551 L -193.932 163.179 L -195.917 160.785 L -197.874 158.367 L -199.803 155.928 L -201.704 153.466 L -203.577 150.983 L -205.422 148.479 L -207.241 145.956 L -209.036 143.415 L -210.809 140.858 L -212.567 138.290 L -214.320 135.717 L -216.085 133.148 L -217.892 130.600 L -219.791 128.098 L -221.864 125.685 L -224.240 123.420 L -227.099 121.387 L -230.645 119.667 L -235.008 118.293 L -240.074 117.173 L -245.403 116.067 L -250.403 114.693 L -254.651 112.879 L -258.050 110.617 L -260.726 107.996 L -262.872 105.125 L -264.659 102.090 L -266.208 98.952 L -267.597 95.748 L -268.872 92.498 L -270.062 89.217 L -271.185 85.911 L -272.251 82.586 L -273.264 79.245 L -274.230 75.890 L -275.149 72.521 L -276.024 69.140 L -276.855 65.749 L -277.641 62.346 L -278.383 58.934 L -279.081 55.513 L -279.734 52.082 L -280.341 48.644 L -280.899 45.197 L -281.405 41.742 L -281.854 38.280 L -282.238 34.811 L -282.540 31.333 L -282.737 27.847 L -282.786 24.352 L -282.617 20.847 L -282.118 17.332 L -281.122 13.811 L -279.413 10.291 L -276.791 6.795 L -273.221 3.353 L -269.000 0.000 L -264.739 -3.249 L -261.047 -6.408 L -258.222 -9.511 L -256.230 -12.588 L -254.870 -15.658 L -253.926 -18.731 L -253.231 -21.807 L -252.672 -24.886 L -252.182 -27.966 L -251.716 -31.046 L -251.251 -34.124 L -250.772 -37.198 L -250.269 -40.269 L -249.739 -43.334 L -249.176 -46.393 L -248.581 -49.446 L -247.951 -52.492 L -247.287 -55.530 L -246.587 -58.561 L -245.853 -61.583 L -245.084 -64.597 L -244.282 -67.602 L -243.447 -70.598 L -242.583 -73.587 L -241.693 -76.568 L -240.784 -79.544 L -239.865 -82.519 L -238.954 -85.499 L -238.080 -88.497 L -237.291 -91.533 L -236.664 -94.644 L -236.322 -97.888 L -236.433 -101.351 L -237.193 -105.141 L -238.729 -109.346 L -240.943 -113.957 L -243.413 -118.803 L -245.546 -123.598 L -246.905 -128.103 L -247.375 -132.225 L -247.086 -135.995 L -246.242 -139.495 L -245.026 -142.805 L -243.566 -145.988 L -241.944 -149.081 L -240.211 -152.112 L -238.398 -155.095 L -236.522 -158.039 L -234.593 -160.949 L -232.619 -163.829 L -230.604 -166.680 L -228.549 -169.503 L -226.456 -172.299 L -224.327 -175.067 L -222.163 -177.807 L -219.963 -180.519 L -217.728 -183.202 L -215.458 -185.856 L -213.153 -188.478 L -210.811 -191.068 L -208.432 -193.623 L -206.012 -196.139 L -203.545 -198.610 L -201.024 -201.024 L -198.432 -203.364 L -195.747 -205.599 L -192.925 -207.680 L -189.902 -209.524 L -186.580 -211.006 L -182.835 -211.956 L -178.549 -212.198 L -173.702 -211.657 L -168.476 -210.504 L -163.245 -209.179 L -158.397 -208.184 L -154.125 -207.814 L -150.409 -208.092 L -147.112 -208.883 L -144.092 -210.023 L -141.236 -211.375 L -138.472 -212.847 L -135.754 -214.379 L -133.055 -215.934 L -130.359 -217.491 L -127.657 -219.035 L -124.946 -220.560 L -122.220 -222.060 L -119.480 -223.532 L -116.724 -224.974 L -113.953 -226.385 L -111.165 -227.765 L -108.362 -229.112 L -105.543 -230.427 L -102.710 -231.709 L -99.862 -232.960 L -97.001 -234.180 L -94.127 -235.372 L -91.243 -236.538 L -88.350 -237.685 L -85.452 -238.821 L -82.553 -239.965 L -79.663 -241.142 L -76.792 -242.401 L -73.962 -243.819 L -71.199 -245.520 L -68.543 -247.683 L -66.031 -250.526 L -63.679 -254.223 L -61.446 -258.735 L -59.210 -263.675 L -56.823 -268.413 L -54.186 -272.413 L -51.291 -275.481 L -48.187 -277.709 L -44.941 -279.305 L -41.603 -280.467 L -38.211 -281.341 L -34.784 -282.024 L -31.337 -282.575 L -27.876 -283.029 L -24.406 -283.407 L -20.929 -283.722 L -17.447 -283.982 L -13.961 -284.191 L -10.473 -284.351 L -6.983 -284.465 L -3.492 -284.533 L -0.000 -284.555 L 3.492 -284.533 L 6.983 -284.465 L 10.473 -284.351 L 13.961 -284.191 L 17.447 -283.982 L 20.929 -283.722 L 24.406 -283.407 L 27.876 -283.029 L 31.337 -282.575 L 34.784 -282.024 L 38.211 -281.341 L 41.603 -280.467 L 44.941 -279.305 L 48.187 -277.709 L 51.291 -275.481 L 54.186 -272.413 L 56.823 -268.413 L 59.210 -263.675 L 61.446 -258.735 L 63.679 -254.223 L 66.031 -250.526 L 68.543 -247.683 L 71.199 -245.520 L 73.962 -243.819 L 76.792 -242.401 L 79.663 -241.142 L 82.553 -239.965 L 85.452 -238.821 L 88.350 -237.685 L 91.243 -236.538 L 94.127 -235.372 L 97.001 -234.180 L 99.862 -232.960 L 102.710 -231.709 L 105.543 -230.427 L 108.362 -229.112 L 111.165 -227.765 L 113.953 -226.385 L 116.724 -224.974 L 119.480 -223.532 L 122.220 -222.060 L 124.946 -220.560 L 127.657 -219.035 L 130.359 -217.491 L 133.055 -215.934 L 135.754 -214.379 L 138.472 -212.847 L 141.236 -211.375 L 144.092 -210.023 L 147.112 -208.883 L 150.409 -208.092 L 154.125 -207.814 L 158.397 -208.184 L 163.245 -209.179 L 168.476 -210.504 L 173.702 -211.657 L 178.549 -212.198 L 182.835 -211.956 L 186.580 -211.006 L 189.902 -209.524 L 192.925 -207.680 L 195.747 -205.599 L 198.432 -203.364 L 201.024 -201.024 L 203.545 -198.610 L 206.012 -196.139 L 208.432 -193.623 L 210.811 -191.068 L 213.153 -188.478 L 215.458 -185.856 L 217.728 -183.202 L 219.963 -180.519 L 222.163 -177.807 L 224.327 -175.067 L 226.456 -172.299 L 228.549 -169.503 L 230.604 -166.680 L 232.619 -163.829 L 234.593 -160.949 L 236.522 -158.039 L 238.398 -155.095 L 240.211 -152.112 L 241.944 -149.081 L 243.566 -145.988 L 245.026 -142.805 L 246.242 -139.495 L 247.086 -135.995 L 247.375 -132.225 L 246.905 -128.103 L 245.546 -123.598 L 243.413 -118.803 L 240.943 -113.957 L 238.729 -109.346 L 237.193 -105.141 L 236.433 -101.351 L 236.322 -97.888 L 236.664 -94.644 L 237.291 -91.533 L 238.080 -88.497 L 238.954 -85.499 L 239.865 -82.519 L 240.784 -79.544 L 241.693 -76.568 L 242.583 -73.587 L 243.447 -70.598 L 244.282 -67.602 L 245.084 -64.597 L 245.853 -61.583 L 246.587 -58.561 L 247.287 -55.530 L 247.951 -52.492 L 248.581 -49.446 L 249.176 -46.393 L 249.739 -43.334 L 250.269 -40.269 L 250.772 -37.198 L 251.251 -34.124 L 251.716 -31.046 L 252.182 -27.966 L 252.672 -24.886 L 253.231 -21.807 L 253.926 -18.731 L 254.870 -15.658 L 256.230 -12.588 L 258.222 -9.511 L 261.047 -6.408 L 264.739 -3.249 L 269.000 -0.000 Z" fill="#a5adb8" stroke="#0b0d11" stroke-width="1"></path>
        <circle id="hubCircle" r="223.27" fill="#1a1614" stroke="#000" stroke-width="1" opacity="1"></circle>
        <circle id="marker" r="32" fill="#ebebe0" stroke="#000" stroke-width="1" opacity="0.9" cx="0" cy="-170"></circle>
      </g>
    </svg>